<svg xmlns="http://www.w3.org/2000/svg" viewBox="0 0 60 40" role="img" aria-label="United States flag">
  <rect width="60" height="40" fill="#fff"/>
  <g fill="#b91c1c">
    <rect y="0" width="60" height="3.0769"/>
    <rect y="6.1538" width="60" height="3.0769"/>
    <rect y="12.3077" width="60" height="3.0769"/>
    <rect y="18.4615" width="60" height="3.0769"/>
    <rect y="24.6154" width="60" height="3.0769"/>
    <rect y="30.7692" width="60" height="3.0769"/>
    <rect y="36.9231" width="60" height="3.0769"/>
  </g>
  <rect width="26" height="17.5" fill="#1d4ed8"/>
  <g fill="#fff">
    <circle cx="3.6" cy="3.2" r="0.7"/>
    <circle cx="7.2" cy="3.2" r="0.7"/>
    <circle cx="10.8" cy="3.2" r="0.7"/>
    <circle cx="14.4" cy="3.2" r="0.7"/>
    <circle cx="18" cy="3.2" r="0.7"/>
    <circle cx="21.6" cy="3.2" r="0.7"/>
    <circle cx="5.4" cy="6" r="0.7"/>
    <circle cx="9" cy="6" r="0.7"/>
    <circle cx="12.6" cy="6" r="0.7"/>
    <circle cx="16.2" cy="6" r="0.7"/>
    <circle cx="19.8" cy="6" r="0.7"/>
    <circle cx="3.6" cy="8.8" r="0.7"/>
    <circle cx="7.2" cy="8.8" r="0.7"/>
    <circle cx="10.8" cy="8.8" r="0.7"/>
    <circle cx="14.4" cy="8.8" r="0.7"/>
    <circle cx="18" cy="8.8" r="0.7"/>
    <circle cx="21.6" cy="8.8" r="0.7"/>
    <circle cx="5.4" cy="11.6" r="0.7"/>
    <circle cx="9" cy="11.6" r="0.7"/>
    <circle cx="12.6" cy="11.6" r="0.7"/>
    <circle cx="16.2" cy="11.6" r="0.7"/>
    <circle cx="19.8" cy="11.6" r="0.7"/>
    <circle cx="3.6" cy="14.4" r="0.7"/>
    <circle cx="7.2" cy="14.4" r="0.7"/>
    <circle cx="10.8" cy="14.4" r="0.7"/>
    <circle cx="14.4" cy="14.4" r="0.7"/>
    <circle cx="18" cy="14.4" r="0.7"/>
    <circle cx="21.6" cy="14.4" r="0.7"/>
  </g>
</svg>
