<svg xmlns="http://www.w3.org/2000/svg" viewBox="0 0 64 64">
  <rect width="64" height="64" rx="12" fill="#f7df1e"/>
  <path d="M34.6 47.8c1.3 2.1 2.9 3.6 5.9 3.6 2.5 0 4-1.2 4-2.9 0-2-1.6-2.7-4.3-3.9l-1.5-.6c-4.3-1.8-7.1-4.2-7.1-9.1 0-4.5 3.5-8 9-8 3.9 0 6.7 1.4 8.7 5l-4.8 3.1c-1.1-1.9-2.2-2.7-3.9-2.7-1.8 0-2.9 1.1-2.9 2.7 0 1.9 1.1 2.6 3.8 3.8l1.5.6c5.1 2.2 7.9 4.4 7.9 9.5 0 5.4-4.2 8.3-9.9 8.3-5.5 0-9.1-2.6-10.9-6.1zm-21.1.5c1 1.8 1.8 3.3 3.9 3.3 2 0 3.2-.8 3.2-3.8V27.2h6.1v20.7c0 6.3-3.7 9.1-9 9.1-4.8 0-7.6-2.5-9-5.5z" fill="#1f2937"/>
</svg>
